ISO-10303-21;
HEADER;
/* Generated by software containing ST-Developer
 * from STEP Tools, Inc. (www.steptools.com) 
 */
/* OPTION: using custom schema-name function */

FILE_DESCRIPTION(
/* description */ (''),
/* implementation_level */ '2;1');

FILE_NAME(
/* name */ '11_stp.stp',
/* time_stamp */ '2026-05-11T15:55:33+08:00',
/* author */ (''),
/* organization */ (''),
/* preprocessor_version */ 'ST-DEVELOPER v20',
/* originating_system */ 'SIEMENS PLM Software NX2412.1700',
/* authorisation */ '');

FILE_SCHEMA (('AUTOMOTIVE_DESIGN { 1 0 10303 214 3 1 1 1 }'));
ENDSEC;

DATA;
#10=SHAPE_REPRESENTATION_RELATIONSHIP('None',
'relationship between 11-None and 11-None',#22,#11);
#11=ADVANCED_BREP_SHAPE_REPRESENTATION('11-None',(#32),#227);
#12=SHAPE_DEFINITION_REPRESENTATION(#13,#22);
#13=PRODUCT_DEFINITION_SHAPE('','',#14);
#14=PRODUCT_DEFINITION(' ','',#16,#15);
#15=PRODUCT_DEFINITION_CONTEXT('part definition',#21,'design');
#16=PRODUCT_DEFINITION_FORMATION_WITH_SPECIFIED_SOURCE(' ',' ',#18,
 .NOT_KNOWN.);
#17=PRODUCT_RELATED_PRODUCT_CATEGORY('part','',(#18));
#18=PRODUCT('11','11',' ',(#19));
#19=PRODUCT_CONTEXT(' ',#21,'mechanical');
#20=APPLICATION_PROTOCOL_DEFINITION('international standard',
'automotive_design',2010,#21);
#21=APPLICATION_CONTEXT(
'core data for automotive mechanical design processes');
#22=SHAPE_REPRESENTATION('11-None',(#148),#227);
#23=PRESENTATION_LAYER_ASSIGNMENT('1','Layer 1',(#32));
#24=STYLED_ITEM('',(#25),#32);
#25=PRESENTATION_STYLE_ASSIGNMENT((#26));
#26=SURFACE_STYLE_USAGE(.BOTH.,#27);
#27=SURFACE_SIDE_STYLE('',(#28));
#28=SURFACE_STYLE_FILL_AREA(#29);
#29=FILL_AREA_STYLE('',(#30));
#30=FILL_AREA_STYLE_COLOUR('',#31);
#31=COLOUR_RGB('orange',1.,0.6,0.);
#32=MANIFOLD_SOLID_BREP('',#33);
#33=CLOSED_SHELL('',(#41,#42,#43,#44,#45,#46,#47,#48));
#34=CYLINDRICAL_SURFACE('',#157,22.0796318286954);
#35=FACE_OUTER_BOUND('',#86,.T.);
#36=FACE_OUTER_BOUND('',#87,.T.);
#37=FACE_OUTER_BOUND('',#88,.T.);
#38=FACE_OUTER_BOUND('',#89,.T.);
#39=FACE_OUTER_BOUND('',#90,.T.);
#40=FACE_OUTER_BOUND('',#93,.T.);
#41=ADVANCED_FACE('',(#80,#81),#49,.T.);
#42=ADVANCED_FACE('',(#35),#50,.T.);
#43=ADVANCED_FACE('',(#36),#51,.T.);
#44=ADVANCED_FACE('',(#37),#52,.T.);
#45=ADVANCED_FACE('',(#38),#53,.F.);
#46=ADVANCED_FACE('',(#39),#54,.T.);
#47=ADVANCED_FACE('',(#82,#83),#34,.T.);
#48=ADVANCED_FACE('',(#40),#55,.T.);
#49=PLANE('',#150);
#50=PLANE('',#151);
#51=PLANE('',#152);
#52=PLANE('',#153);
#53=PLANE('',#154);
#54=PLANE('',#155);
#55=PLANE('',#158);
#56=LINE('',#196,#68);
#57=LINE('',#199,#69);
#58=LINE('',#201,#70);
#59=LINE('',#203,#71);
#60=LINE('',#205,#72);
#61=LINE('',#207,#73);
#62=LINE('',#209,#74);
#63=LINE('',#211,#75);
#64=LINE('',#213,#76);
#65=LINE('',#215,#77);
#66=LINE('',#217,#78);
#67=LINE('',#218,#79);
#68=VECTOR('',#163,1.);
#69=VECTOR('',#164,1.);
#70=VECTOR('',#165,1.);
#71=VECTOR('',#166,1.);
#72=VECTOR('',#169,1.);
#73=VECTOR('',#170,1.);
#74=VECTOR('',#171,1.);
#75=VECTOR('',#174,1.);
#76=VECTOR('',#175,1.);
#77=VECTOR('',#176,1.);
#78=VECTOR('',#179,1.);
#79=VECTOR('',#180,1.);
#80=FACE_BOUND('',#84,.T.);
#81=FACE_BOUND('',#85,.T.);
#82=FACE_BOUND('',#91,.T.);
#83=FACE_BOUND('',#92,.T.);
#84=EDGE_LOOP('',(#94));
#85=EDGE_LOOP('',(#95,#96,#97,#98));
#86=EDGE_LOOP('',(#99,#100,#101,#102));
#87=EDGE_LOOP('',(#103,#104,#105,#106));
#88=EDGE_LOOP('',(#107,#108,#109,#110));
#89=EDGE_LOOP('',(#111,#112,#113,#114));
#90=EDGE_LOOP('',(#115,#116,#117,#118));
#91=EDGE_LOOP('',(#119));
#92=EDGE_LOOP('',(#120));
#93=EDGE_LOOP('',(#121));
#94=ORIENTED_EDGE('',*,*,#132,.T.);
#95=ORIENTED_EDGE('',*,*,#133,.F.);
#96=ORIENTED_EDGE('',*,*,#134,.F.);
#97=ORIENTED_EDGE('',*,*,#135,.T.);
#98=ORIENTED_EDGE('',*,*,#136,.T.);
#99=ORIENTED_EDGE('',*,*,#137,.F.);
#100=ORIENTED_EDGE('',*,*,#136,.F.);
#101=ORIENTED_EDGE('',*,*,#138,.T.);
#102=ORIENTED_EDGE('',*,*,#139,.T.);
#103=ORIENTED_EDGE('',*,*,#140,.F.);
#104=ORIENTED_EDGE('',*,*,#139,.F.);
#105=ORIENTED_EDGE('',*,*,#141,.T.);
#106=ORIENTED_EDGE('',*,*,#142,.T.);
#107=ORIENTED_EDGE('',*,*,#143,.F.);
#108=ORIENTED_EDGE('',*,*,#142,.F.);
#109=ORIENTED_EDGE('',*,*,#144,.T.);
#110=ORIENTED_EDGE('',*,*,#134,.T.);
#111=ORIENTED_EDGE('',*,*,#135,.F.);
#112=ORIENTED_EDGE('',*,*,#144,.F.);
#113=ORIENTED_EDGE('',*,*,#141,.F.);
#114=ORIENTED_EDGE('',*,*,#138,.F.);
#115=ORIENTED_EDGE('',*,*,#133,.T.);
#116=ORIENTED_EDGE('',*,*,#137,.T.);
#117=ORIENTED_EDGE('',*,*,#140,.T.);
#118=ORIENTED_EDGE('',*,*,#143,.T.);
#119=ORIENTED_EDGE('',*,*,#132,.F.);
#120=ORIENTED_EDGE('',*,*,#145,.F.);
#121=ORIENTED_EDGE('',*,*,#145,.T.);
#122=VERTEX_POINT('',#195);
#123=VERTEX_POINT('',#197);
#124=VERTEX_POINT('',#198);
#125=VERTEX_POINT('',#200);
#126=VERTEX_POINT('',#202);
#127=VERTEX_POINT('',#206);
#128=VERTEX_POINT('',#208);
#129=VERTEX_POINT('',#212);
#130=VERTEX_POINT('',#214);
#131=VERTEX_POINT('',#223);
#132=EDGE_CURVE('',#122,#122,#146,.T.);
#133=EDGE_CURVE('',#123,#124,#56,.T.);
#134=EDGE_CURVE('',#125,#123,#57,.T.);
#135=EDGE_CURVE('',#125,#126,#58,.T.);
#136=EDGE_CURVE('',#126,#124,#59,.T.);
#137=EDGE_CURVE('',#124,#127,#60,.T.);
#138=EDGE_CURVE('',#126,#128,#61,.T.);
#139=EDGE_CURVE('',#128,#127,#62,.T.);
#140=EDGE_CURVE('',#127,#129,#63,.T.);
#141=EDGE_CURVE('',#128,#130,#64,.T.);
#142=EDGE_CURVE('',#130,#129,#65,.T.);
#143=EDGE_CURVE('',#129,#123,#66,.T.);
#144=EDGE_CURVE('',#130,#125,#67,.T.);
#145=EDGE_CURVE('',#131,#131,#147,.T.);
#146=CIRCLE('',#149,22.0796318286954);
#147=CIRCLE('',#156,22.0796318286954);
#148=AXIS2_PLACEMENT_3D('',#193,#159,#160);
#149=AXIS2_PLACEMENT_3D('',#194,#161,#162);
#150=AXIS2_PLACEMENT_3D('',#204,#167,#168);
#151=AXIS2_PLACEMENT_3D('',#210,#172,#173);
#152=AXIS2_PLACEMENT_3D('',#216,#177,#178);
#153=AXIS2_PLACEMENT_3D('',#219,#181,#182);
#154=AXIS2_PLACEMENT_3D('',#220,#183,#184);
#155=AXIS2_PLACEMENT_3D('',#221,#185,#186);
#156=AXIS2_PLACEMENT_3D('',#222,#187,#188);
#157=AXIS2_PLACEMENT_3D('',#224,#189,#190);
#158=AXIS2_PLACEMENT_3D('',#225,#191,#192);
#159=DIRECTION('',(0.,0.,1.));
#160=DIRECTION('',(1.,0.,0.));
#161=DIRECTION('',(1.,0.,0.));
#162=DIRECTION('',(0.,0.,1.));
#163=DIRECTION('',(0.,-1.,0.));
#164=DIRECTION('',(0.,0.,1.));
#165=DIRECTION('',(0.,-1.,0.));
#166=DIRECTION('',(0.,0.,1.));
#167=DIRECTION('',(-1.,0.,0.));
#168=DIRECTION('',(0.,0.,1.));
#169=DIRECTION('',(1.,0.,0.));
#170=DIRECTION('',(1.,0.,0.));
#171=DIRECTION('',(0.,0.,1.));
#172=DIRECTION('',(0.,-1.,0.));
#173=DIRECTION('',(0.,0.,-1.));
#174=DIRECTION('',(0.,1.,0.));
#175=DIRECTION('',(0.,1.,0.));
#176=DIRECTION('',(0.,0.,1.));
#177=DIRECTION('',(1.,0.,0.));
#178=DIRECTION('',(0.,0.,-1.));
#179=DIRECTION('',(-1.,0.,0.));
#180=DIRECTION('',(-1.,0.,0.));
#181=DIRECTION('',(0.,1.,0.));
#182=DIRECTION('',(0.,0.,1.));
#183=DIRECTION('',(0.,0.,1.));
#184=DIRECTION('',(1.,0.,0.));
#185=DIRECTION('',(0.,0.,1.));
#186=DIRECTION('',(1.,0.,0.));
#187=DIRECTION('',(-1.,0.,0.));
#188=DIRECTION('',(0.,-1.,-1.57133369744173E-16));
#189=DIRECTION('',(1.,0.,0.));
#190=DIRECTION('',(0.,0.,-1.));
#191=DIRECTION('',(-1.,0.,0.));
#192=DIRECTION('',(0.,0.,1.));
#193=CARTESIAN_POINT('',(0.,0.,0.));
#194=CARTESIAN_POINT('',(-112.,-2.,-23.));
#195=CARTESIAN_POINT('',(-112.,-2.,-0.920368171304555));
#196=CARTESIAN_POINT('',(-112.,61.,6.));
#197=CARTESIAN_POINT('',(-112.,61.,6.));
#198=CARTESIAN_POINT('',(-112.,-74.,6.));
#199=CARTESIAN_POINT('',(-112.,61.,-57.));
#200=CARTESIAN_POINT('',(-112.,61.,-57.));
#201=CARTESIAN_POINT('',(-112.,61.,-57.));
#202=CARTESIAN_POINT('',(-112.,-74.,-57.));
#203=CARTESIAN_POINT('',(-112.,-74.,-57.));
#204=CARTESIAN_POINT('',(-112.,61.,-57.));
#205=CARTESIAN_POINT('',(-112.,-74.,6.));
#206=CARTESIAN_POINT('',(104.,-74.,6.));
#207=CARTESIAN_POINT('',(-112.,-74.,-57.));
#208=CARTESIAN_POINT('',(104.,-74.,-57.));
#209=CARTESIAN_POINT('',(104.,-74.,-57.));
#210=CARTESIAN_POINT('',(-112.,-74.,-57.));
#211=CARTESIAN_POINT('',(104.,-74.,6.));
#212=CARTESIAN_POINT('',(104.,61.,6.));
#213=CARTESIAN_POINT('',(104.,-74.,-57.));
#214=CARTESIAN_POINT('',(104.,61.,-57.));
#215=CARTESIAN_POINT('',(104.,61.,-57.));
#216=CARTESIAN_POINT('',(104.,-74.,-57.));
#217=CARTESIAN_POINT('',(104.,61.,6.));
#218=CARTESIAN_POINT('',(104.,61.,-57.));
#219=CARTESIAN_POINT('',(104.,61.,-57.));
#220=CARTESIAN_POINT('',(0.,0.,-57.));
#221=CARTESIAN_POINT('',(0.,0.,6.));
#222=CARTESIAN_POINT('',(-167.,-2.,-23.));
#223=CARTESIAN_POINT('',(-167.,-24.0796318286954,-23.));
#224=CARTESIAN_POINT('',(-167.,-2.,-23.));
#225=CARTESIAN_POINT('',(-167.,-2.,-23.));
#226=MECHANICAL_DESIGN_GEOMETRIC_PRESENTATION_REPRESENTATION('',(#24),#227);
#227=(
GEOMETRIC_REPRESENTATION_CONTEXT(3)
GLOBAL_UNCERTAINTY_ASSIGNED_CONTEXT((#228))
GLOBAL_UNIT_ASSIGNED_CONTEXT((#234,#230,#229))
REPRESENTATION_CONTEXT('11_stp','TOP_LEVEL_ASSEMBLY_PART')
);
#228=UNCERTAINTY_MEASURE_WITH_UNIT(LENGTH_MEASURE(2.E-5),#234,
'DISTANCE_ACCURACY_VALUE','Maximum Tolerance applied to model');
#229=(
NAMED_UNIT(*)
SI_UNIT($,.STERADIAN.)
SOLID_ANGLE_UNIT()
);
#230=(
CONVERSION_BASED_UNIT('DEGREE',#232)
NAMED_UNIT(#231)
PLANE_ANGLE_UNIT()
);
#231=DIMENSIONAL_EXPONENTS(0.,0.,0.,0.,0.,0.,0.);
#232=PLANE_ANGLE_MEASURE_WITH_UNIT(PLANE_ANGLE_MEASURE(0.0174532925),#233);
#233=(
NAMED_UNIT(*)
PLANE_ANGLE_UNIT()
SI_UNIT($,.RADIAN.)
);
#234=(
LENGTH_UNIT()
NAMED_UNIT(*)
SI_UNIT(.MILLI.,.METRE.)
);
ENDSEC;
END-ISO-10303-21;
