DBRep_DrawableShape

CASCADE Topology V3, (c) Open Cascade
Locations 0
Curve2ds 0
Curves 30
1 -165 95 0 0 -1 0 
1 -165 -150 240 0 0 -1 
1 -165 95 240 0 -1 0 
1 -165 95 240 0 0 -1 
1 -165 -150 0 1 0 0 
1 195 -150 240 0 0 -1 
1 -165 -150 240 1 0 0 
1 195 -150 0 0 1 0 
1 195 95 240 0 0 -1 
1 195 -150 240 0 1 0 
1 195 95 0 -1 0 0 
1 195 95 240 -1 0 0 
1 -105 60 240 0 -1 0 
1 145 60 240 -1 0 0 
1 145 -110 240 0 1 0 
1 -105 -110 240 1 0 0 
1 -105 -110 110 0 0 -1 
1 -105 60 30 0 -1 0 
1 -105 60 110 0 0 -1 
1 145 -110 110 0 0 -1 
1 -105 -110 110 -1 0 0 
1 -35 -110 30 0 0 1 
1 -105 -110 30 1 0 0 
1 145 60 110 0 0 -1 
1 145 -110 110 0 -1 0 
1 -35 60 30 -1 0 0 
1 -35 60 30 0 0 1 
1 145 60 110 1 0 0 
1 -35 -110 110 0 1 0 
1 -35 -110 30 0 -1 0 
Polygon3D 0
PolygonOnTriangulations 60
2 2 4 
p 0.0001 1 0 245 
2 4 1 
p 0.0001 1 0 245 
2 3 4 
p 0.0001 1 0 240 
2 1 2 
p 0.0001 1 0 240 
2 1 3 
p 0.0001 1 0 245 
2 1 2 
p 0.0001 1 0 245 
2 1 2 
p 0.0001 1 0 240 
2 3 4 
p 0.0001 1 0 240 
2 2 4 
p 0.0001 1 0 360 
2 1 2 
p 0.0001 1 0 360 
2 3 4 
p 0.0001 1 0 240 
2 1 2 
p 0.0001 1 0 240 
2 1 3 
p 0.0001 1 0 360 
2 2 3 
p 0.0001 1 0 360 
2 2 4 
p 0.0001 1 0 245 
2 2 3 
p 0.0001 1 0 245 
2 3 4 
p 0.0001 1 0 240 
2 1 2 
p 0.0001 1 0 240 
2 1 3 
p 0.0001 1 0 245 
2 3 4 
p 0.0001 1 0 245 
2 2 4 
p 0.0001 1 0 360 
2 3 4 
p 0.0001 1 0 360 
2 1 3 
p 0.0001 1 0 360 
2 4 1 
p 0.0001 1 0 360 
2 5 6 
p 0.0001 1 0 170 
2 1 4 
p 0.0001 1 0 170 
2 7 5 
p 0.0001 1 0 250 
2 1 6 
p 0.0001 1 0 250 
2 8 7 
p 0.0001 1 0 170 
2 1 4 
p 0.0001 1 0 170 
2 6 8 
p 0.0001 1 0 250 
2 1 6 
p 0.0001 1 0 250 
2 4 3 
p 0.0001 1 -130 80 
2 1 2 
p 0.0001 1 -130 80 
2 2 3 
p 0.0001 1 0 170 
2 1 2 
p 0.0001 1 0 170 
2 1 2 
p 0.0001 1 -130 80 
2 6 5 
p 0.0001 1 -130 80 
2 6 5 
p 0.0001 1 -130 0 
2 1 2 
p 0.0001 1 -130 0 
2 5 4 
p 0.0001 1 -250 -70 
2 3 1 
p 0.0001 1 -250 -70 
2 3 4 
p 0.0001 1 0 80 
2 1 2 
p 0.0001 1 0 80 
2 2 3 
p 0.0001 1 0 70 
2 2 3 
p 0.0001 1 0 70 
2 4 3 
p 0.0001 1 -130 0 
2 1 2 
p 0.0001 1 -130 0 
2 3 2 
p 0.0001 1 -170 0 
2 4 3 
p 0.0001 1 -170 0 
2 4 5 
p 0.0001 1 0 70 
2 4 1 
p 0.0001 1 0 70 
2 4 3 
p 0.0001 1 0 80 
2 3 4 
p 0.0001 1 0 80 
2 3 2 
p 0.0001 1 -180 0 
2 2 4 
p 0.0001 1 -180 0 
2 1 2 
p 0.0001 1 0 170 
2 2 4 
p 0.0001 1 0 170 
2 3 1 
p 0.0001 1 -170 0 
2 4 3 
p 0.0001 1 -170 0 
Surfaces 13
1 -165 95 240 1 0 0 0 0 -1 -0 1 0 
1 0 0 0 0 0 1 1 0 -0 -0 1 0 
1 -165 -150 240 0 1 0 0 -0 1 1 0 -0 
1 0 0 240 0 0 1 1 0 -0 -0 1 0 
1 195 95 240 0 -1 0 0 0 -1 1 0 0 
1 195 -150 240 -1 0 0 0 0 1 0 1 -0 
1 -105 60 110 -1 0 0 0 0 1 0 1 -0 
1 145 60 110 0 1 0 0 -0 1 1 0 -0 
1 145 -110 110 1 0 0 0 0 -1 -0 1 0 
1 -105 -110 110 0 -1 0 0 0 -1 1 0 0 
1 0 0 30 0 0 1 1 0 -0 -0 1 0 
1 0 0 110 0 0 1 1 0 -0 -0 1 0 
1 -35 -110 30 1 0 0 0 0 -1 -0 1 0 
Triangulations 13
4 2 1 0 1.4210854715202e-14
-165 95 240 -165 95 0 -165 -150 240 -165 -150 0 0 0 240 0 0 -245 240 -245 2 1 3 2 3 4 
4 2 1 0 0
-165 -150 0 195 -150 0 195 95 0 -165 95 0 -165 -150 195 -150 195 95 -165 95 3 1 2 3 4 1 
4 2 1 0 0
-165 -150 240 -165 -150 0 195 -150 240 195 -150 0 0 0 -240 0 0 360 -240 360 3 2 1 3 4 2 
8 8 1 0 0
-165 95 240 -165 -150 240 195 -150 240 195 95 240 -105 60 240 -105 -110 240 145 60 240 145 -110 240 -165 95 -165 -150 195 -150 195 95 -105 60 -105 -110 145 60 145 -110 1 2 6 5 1 6 3 8 6 3 6 2 4 7 8 4 8 3 4 1 5 4 5 7 
4 2 1 0 0
195 95 240 195 95 0 -165 95 240 -165 95 0 0 0 240 0 0 -360 240 -360 2 1 3 2 3 4 
4 2 1 0 8.88178419700125e-15
195 -150 240 195 -150 0 195 95 240 195 95 0 0 0 -240 0 0 245 -240 245 3 2 1 3 4 2 
4 2 1 0 7.105427357601e-15
-105 60 240 -105 60 30 -105 -110 30 -105 -110 240 130 0 -80 0 -80 -170 130 -170 1 2 3 1 3 4 
6 4 1 0 2.99826000424566e-14
145 60 240 145 60 110 -35 60 110 -35 60 30 -105 60 30 -105 60 240 130 0 0 0 0 -180 -80 -180 -80 -250 130 -250 3 4 5 6 3 5 1 2 3 1 3 6 
4 2 1 0 2.88384571246322e-14
145 -110 240 145 -110 110 145 60 110 145 60 240 -130 0 0 0 0 170 -130 170 3 1 2 3 4 1 
6 4 1 0 2.88016760909234e-14
-105 -110 240 -105 -110 30 -35 -110 30 -35 -110 110 145 -110 110 145 -110 240 -130 0 80 0 80 70 0 70 0 250 -130 250 2 4 1 6 1 4 3 4 2 5 6 4 
4 2 1 0 0
-105 60 30 -105 -110 30 -35 -110 30 -35 60 30 -105 60 -105 -110 -35 -110 -35 60 4 1 2 4 2 3 
4 2 1 0 0
-35 -110 110 -35 60 110 145 -110 110 145 60 110 -35 -110 -35 60 145 -110 145 60 4 2 1 4 1 3 
4 2 1 0 1.50270234617344e-14
-35 -110 30 -35 -110 110 -35 60 30 -35 60 110 0 0 -80 0 0 170 -80 170 3 2 1 3 4 2 

TShapes 79
Ve
1e-07
-165 95 0
0 0

0101101
*
Ve
1e-07
-165 -150 0
0 0

0101101
*
Ed
 1e-07 1 1 0
1  1 0 0 245
4 C0 1 0 2 0
6  1 1 0
6  2 2 0
0

0101000
+79 0 -78 0 *
Ve
1e-07
-165 -150 240
0 0

0101101
*
Ed
 1e-07 1 1 0
1  2 0 0 240
4 C0 1 0 3 0
6  3 1 0
6  4 3 0
0

0101000
+76 0 -78 0 *
Ve
1e-07
-165 95 240
0 0

0101101
*
Ed
 1e-07 1 1 0
1  3 0 0 245
4 C0 1 0 4 0
6  5 1 0
6  6 4 0
0

0101000
+74 0 -76 0 *
Ed
 1e-07 1 1 0
1  4 0 0 240
4 C0 1 0 5 0
6  7 1 0
6  8 5 0
0

0101000
+74 0 -79 0 *
Wi

0101100
+77 0 -75 0 -73 0 +72 0 *
Fa
0  1e-07 1 0
2  1
0101000
-71 0 *
Ve
1e-07
195 -150 0
0 0

0101101
*
Ed
 1e-07 1 1 0
1  5 0 0 360
4 C0 3 0 2 0
6  9 3 0
6  10 2 0
0

0101000
+78 0 -69 0 *
Ve
1e-07
195 -150 240
0 0

0101101
*
Ed
 1e-07 1 1 0
1  6 0 0 240
4 C0 3 0 6 0
6  11 3 0
6  12 6 0
0

0101000
+67 0 -69 0 *
Ed
 1e-07 1 1 0
1  7 0 0 360
4 C0 3 0 4 0
6  13 3 0
6  14 4 0
0

0101000
+76 0 -67 0 *
Wi

0101100
+68 0 -66 0 -65 0 +75 0 *
Fa
0  1e-07 3 0
2  3
0101000
-64 0 *
Ve
1e-07
195 95 0
0 0

0101101
*
Ed
 1e-07 1 1 0
1  8 0 0 245
4 C0 6 0 2 0
6  15 6 0
6  16 2 0
0

0101000
+69 0 -62 0 *
Ve
1e-07
195 95 240
0 0

0101101
*
Ed
 1e-07 1 1 0
1  9 0 0 240
4 C0 6 0 5 0
6  17 6 0
6  18 5 0
0

0101000
+60 0 -62 0 *
Ed
 1e-07 1 1 0
1  10 0 0 245
4 C0 6 0 4 0
6  19 6 0
6  20 4 0
0

0101000
+67 0 -60 0 *
Wi

0101100
+61 0 -59 0 -58 0 +66 0 *
Fa
0  1e-07 6 0
2  6
0101000
-57 0 *
Ed
 1e-07 1 1 0
1  11 0 0 360
4 C0 5 0 2 0
6  21 5 0
6  22 2 0
0

0101000
+62 0 -79 0 *
Ed
 1e-07 1 1 0
1  12 0 0 360
4 C0 5 0 4 0
6  23 5 0
6  24 4 0
0

0101000
+60 0 -74 0 *
Wi

0101100
+55 0 -72 0 -54 0 +59 0 *
Fa
0  1e-07 5 0
2  5
0101000
-53 0 *
Ve
1e-07
-105 60 240
0 0

0101101
*
Ve
1e-07
-105 -110 240
0 0

0101101
*
Ed
 1e-07 1 1 0
1  13 0 0 170
4 C0 4 0 7 0
6  25 4 0
6  26 7 0
0

0101000
+51 0 -50 0 *
Ve
1e-07
145 60 240
0 0

0101101
*
Ed
 1e-07 1 1 0
1  14 0 0 250
4 C0 4 0 8 0
6  27 4 0
6  28 8 0
0

0101000
+48 0 -51 0 *
Ve
1e-07
145 -110 240
0 0

0101101
*
Ed
 1e-07 1 1 0
1  15 0 0 170
4 C0 4 0 9 0
6  29 4 0
6  30 9 0
0

0101000
+46 0 -48 0 *
Ed
 1e-07 1 1 0
1  16 0 0 250
4 C0 4 0 10 0
6  31 4 0
6  32 10 0
0

0101000
+50 0 -46 0 *
Wi

0101100
-49 0 -47 0 -45 0 -44 0 *
Wi

0101100
+73 0 +65 0 +58 0 +54 0 *
Fa
0  1e-07 4 0
2  4
0101000
+43 0 +42 0 *
Wi

0101100
-77 0 -55 0 -61 0 -68 0 *
Fa
0  1e-07 2 0
2  2
0101000
-40 0 *
Ve
1e-07
-105 -110 30
0 0

0101101
*
Ed
 1e-07 1 1 0
1  17 0 -130 80
4 C0 7 0 10 0
6  33 7 0
6  34 10 0
0

0101000
+50 0 -38 0 *
Ve
1e-07
-105 60 30
0 0

0101101
*
Ed
 1e-07 1 1 0
1  18 0 0 170
4 C0 7 0 11 0
6  35 7 0
6  36 11 0
0

0101000
+36 0 -38 0 *
Ed
 1e-07 1 1 0
1  19 0 -130 80
4 C0 7 0 8 0
6  37 7 0
6  38 8 0
0

0101000
+51 0 -36 0 *
Wi

0101100
+49 0 +37 0 -35 0 -34 0 *
Fa
0  1e-07 7 0
2  7
0101000
-33 0 *
Ve
1e-07
145 -110 110
0 0

0101101
*
Ed
 1e-07 1 1 0
1  20 0 -130 0
4 C0 10 0 9 0
6  39 10 0
6  40 9 0
0

0101000
+46 0 -31 0 *
Ve
1e-07
-35 -110 110
0 0

0101101
*
Ed
 1e-07 1 1 0
1  21 0 -250 -70
4 C0 10 0 12 0
6  41 10 0
6  42 12 0
0

0101000
+31 0 -29 0 *
Ve
1e-07
-35 -110 30
0 0

0101101
*
Ed
 1e-07 1 1 0
1  22 0 0 80
4 C0 10 0 13 0
6  43 10 0
6  44 13 0
0

0101000
+27 0 -29 0 *
Ed
 1e-07 1 1 0
1  23 0 0 70
4 C0 10 0 11 0
6  45 10 0
6  46 11 0
0

0101000
+38 0 -27 0 *
Wi

0101100
+44 0 +30 0 +28 0 -26 0 -25 0 -37 0 *
Fa
0  1e-07 10 0
2  10
0101000
-24 0 *
Ve
1e-07
145 60 110
0 0

0101101
*
Ed
 1e-07 1 1 0
1  24 0 -130 0
4 C0 9 0 8 0
6  47 9 0
6  48 8 0
0

0101000
+48 0 -22 0 *
Ed
 1e-07 1 1 0
1  25 0 -170 0
4 C0 9 0 12 0
6  49 9 0
6  50 12 0
0

0101000
+22 0 -31 0 *
Wi

0101100
+45 0 +21 0 +20 0 -30 0 *
Fa
0  1e-07 9 0
2  9
0101000
-19 0 *
Ve
1e-07
-35 60 30
0 0

0101101
*
Ed
 1e-07 1 1 0
1  26 0 0 70
4 C0 8 0 11 0
6  51 8 0
6  52 11 0
0

0101000
+17 0 -36 0 *
Ve
1e-07
-35 60 110
0 0

0101101
*
Ed
 1e-07 1 1 0
1  27 0 0 80
4 C0 8 0 13 0
6  53 8 0
6  54 13 0
0

0101000
+17 0 -15 0 *
Ed
 1e-07 1 1 0
1  28 0 -180 0
4 C0 8 0 12 0
6  55 8 0
6  56 12 0
0

0101000
+15 0 -22 0 *
Wi

0101100
+47 0 +34 0 -16 0 +14 0 +13 0 -21 0 *
Fa
0  1e-07 8 0
2  8
0101000
-12 0 *
Ed
 1e-07 1 1 0
1  29 0 0 170
4 C0 12 0 13 0
6  57 12 0
6  58 13 0
0

0101000
+29 0 -15 0 *
Wi

0101100
-10 0 -28 0 -20 0 -13 0 *
Fa
0  1e-07 12 0
2  12
0101000
+9 0 *
Ed
 1e-07 1 1 0
1  30 0 -170 0
4 C0 13 0 11 0
6  59 13 0
6  60 11 0
0

0101000
+17 0 -27 0 *
Wi

0101100
+10 0 -14 0 +7 0 +26 0 *
Fa
0  1e-07 13 0
2  13
0101000
-6 0 *
Wi

0101100
+35 0 +25 0 -7 0 +16 0 *
Fa
0  1e-07 11 0
2  11
0101000
+4 0 *
Sh

0101100
-70 0 -63 0 -56 0 -52 0 +41 0 -39 0 -32 0 -23 0 -18 0 -11 0 
+8 0 -5 0 +3 0 *
So

0100000
+2 0 *

+1 0 