DBRep_DrawableShape

CASCADE Topology V3, (c) Open Cascade
Locations 0
Curve2ds 0
Curves 4
1 0 0 5 1 0 0 
1 10 0 5 0 1 0 
1 10 10 5 -1 0 0 
1 0 10 5 0 -1 0 
Polygon3D 0
PolygonOnTriangulations 0
Surfaces 0
Triangulations 0

TShapes 13
Ve
1e-07
0 0 5
0 0

0101101
*
Ve
1e-07
10 0 5
0 0

0101101
*
Ed
 1e-07 1 1 0
1  1 0 0 10
0

0101000
+13 0 -12 0 *
Ve
1e-07
10 0 5
0 0

0101101
*
Ve
1e-07
10 10 5
0 0

0101101
*
Ed
 1e-07 1 1 0
1  2 0 0 10
0

0101000
+10 0 -9 0 *
Ve
1e-07
10 10 5
0 0

0101101
*
Ve
1e-07
0 10 5
0 0

0101101
*
Ed
 1e-07 1 1 0
1  3 0 0 10
0

0101000
+7 0 -6 0 *
Ve
1e-07
0 10 5
0 0

0101101
*
Ve
1e-07
0 0 5
0 0

0101101
*
Ed
 1e-07 1 1 0
1  4 0 0 10
0

0101000
+4 0 -3 0 *
Co

1100000
+11 0 +8 0 +5 0 +2 0 *

+1 0 