DBRep_DrawableShape

CASCADE Topology V3, (c) Open Cascade
Locations 0
Curve2ds 82
1 -12.795801918308584 68.40271593499601 0.065264455265877375 -0.9978680027332516 
8 0 150.86754092214815
1 99.479902385704321 5.6034692229533096 -0.99780871556010442 -0.066164697175267198 
1 -2.9495140427221234 -82.143175802265063 0.1353622125218589 0.99079618056449292 
8 0 151.94436019271848
1 -10.282222120589514 -75.195960702070607 0.13537841049113369 0.99079396746896586 
1 17.618010733182519 68.40271593499601 -1 8.6736173798840355e-19 
8 0 30.413812651491099
1 61.914279074529347 8.4062775207289562 0.16439898730535729 -0.98639392383214375 
1 24.077266386629159 0.0014786311800847329 0.99792852302559776 0.064332440742980043 
8 0 0.15450028792677703
1 -10.272420461311532 -75.350149762787836 -0.063441042146346147 0.99798558815815852 
1 10.300524627154171 75.424462566997093 -0.13539842099945473 -0.99079123310153205 
8 0 152.09580592610718
1 10.287763845393004 75.349594767806536 -0.13517916672004293 -0.99082117099145339 
1 98.268002101167696 3.6716429895483707 0 1 
8 0 5
1 73.770827549509079 3.7291724504909212 -0 -1 
1 64.280648980541429 58.15351592198428 -1 -0 
8 0 94.868329805051374
1 9.8304002544161762 28.033937463804904 0.94868329805051388 -0.31622776601683794 
1 -65.827635905373157 12.142335304559037 0 -1 
8 0 42.629398798371767
1 13.093933453601295 18.515790747736673 1 -0 
1 -22.618447027843455 51.354587655841492 0.17096818931619048 -0.98527654911803486 
8 0 123.99942752461261
1 -60.032902776355442 -14.70124000872346 0.94654147639779529 0.3225821344381643 
1 -16.399086008286197 -3.3304209792707624 0 -1 
8 0 5.0000000000000036
1 -24.311127975318939 -1.3111279753189606 -0 1 
1 23.922753067807186 -0.00049889421041982018 0.99991711344348744 0.012875023993914644 
8 0 0.15450028792677667
1 -10.299792760195087 -75.500661136340753 -0.012553291742370933 0.99992120432883669 
1 -10.293007335880258 -75.27072853610197 0.037912837129602132 -0.99928104994580191 
8 0 0.15450028792677811
1 24.154407546141396 0.0054629378256301217 -0.99925410343128718 -0.038616535004249664 
1 -10.287149791627609 -75.425117746038367 0.1352246122510346 0.99081496973025052 
8 0 152.24798264211154
1 -10.301732247383713 -75.346173022367879 0.13539057669275484 0.99079230504823945 
1 11.543257091632407 99.416050510347688 -0.1352717953749262 -0.99080852911954898 
8 0 152.40078739954069
1 10.311209922840291 75.49995663855411 -0.13524210100700237 -0.9908125827396479 
1 -6.1561545714971384 -21.348390507452976 1 0 
8 0 20.6155281280883
1 -14.903215750514697 -9.7304921814973646 0.242535625036333 0.97014250014533188 
1 33.457939531385591 -146.79206046861441 0 1 
8 0 250
1 5.205659006390345 125.73602517924222 -0 -1 
1 24.551458632439569 51.354587655841506 -1 -3.6082248300317588e-16 
8 0 47.169905660283021
1 15.139773033815722 -20.973331222774497 -0.84799830400508802 0.52999894000318004 
1 47.544557648748118 -6.6635512354753814 0 1 
8 0 70
1 17.924427553405721 13.816063854365389 -0 -1 
1 22.973525824396202 -22.195864878032282 -0.52999894000318004 0.84799830400508802 
8 0 47.169905660283021
1 -24.551458632439569 51.354587655841506 1 -3.1918911957973251e-16 
1 24.560537290735155 -3.6894627092648413 0 1 
8 0 5.0000000000000036
1 2.2554324598893345 -7.5301076400310905 -0 -1 
1 -14.459373556591153 -21.348390507453018 1 1.3786554122608152e-15 
8 0 20.6155281280883
1 -2.7445675401106655 12.469892359968906 0.242535625036333 -0.97014250014533188 
1 10.276598336249071 -75.349790809054369 0.060236146024163599 0.99818415470901745 
8 0 0.11576705149576828
1 -2.4694044192705782 -0.37078661760538623 0.061110822062502866 0.99813098710882886 
1 -2.4569292702810479 -0.30107396208062198 -0.038616535004272624 -0.99925410343128629 
8 0 0.15450028792677822
1 10.293007335875043 -75.270728536102709 -0.037912837129693934 -0.99928104994579858 
1 10.299792760202694 -75.500661136339744 0.012553291742248337 0.99992120432883824 
8 0 0.15450028792676954
1 -2.4630851245114123 -0.53160407118039998 0.012875023993892246 0.99991711344348777 
1 -15.921824473992551 -59.826567004237347 0.3225821344381643 0.94654147639779529 
8 0 123.99942752461261
1 22.618447027843452 51.354587655841527 -0.1709681893161904 -0.98527654911803497 
1 65.827635905373157 -12.14233530455904 0 1 
8 0 42.629398798371767
1 16.377089581182936 55.26386169311251 -0 -1 
1 25.611672477110474 -13.742733169326584 -0.31622776601683794 0.94868329805051388 
8 0 94.868329805051374
1 30.587680824509945 -58.15351592198428 -1 -0 
1 -73.772167589136416 6.1875866035768183 0 -1 
8 0 5
1 -73.770827549509079 -3.7291724504909105 -0 1 
1 3.81102710044361 76.376533685241967 -0.066166697801599644 -0.99780858289655527 
8 0 150.90627538288498
1 12.7970048304317 68.421849057406106 -0.065266428671535551 -0.997867873662873 
1 10.283571697267757 -75.234233972613922 -0.13535450576757849 0.99079723342791715 
8 0 151.98225473639235
1 2.9478911720675391 -82.16267508129728 -0.13530986909488646 0.99080333029593959 
1 -10.287911278018845 75.349363550340598 0.13520760476629304 -0.99081729073193003 
8 0 152.0958059261072
1 -10.300524627148942 75.424462566997803 0.13539842099938609 -0.99079123310154149 
1 -55.149318747260992 -98.686831605237245 1 0 
8 0 140
1 -78.085720925470667 8.406277520728958 1 -0 
1 -64.414279074529347 21.849633225071749 -0.16439898730535729 -0.98639392383214375 
8 0 30.413812651491099
1 -17.6168078210594 68.421849057406106 1 -2.1684043449710089e-19 
1 -30.58768082450996 58.15351592198428 0 -1 
8 0 150
1 73.770827549509079 -1.2708275495090788 -1 -0 
1 -5.2056590063903529 125.73602517924222 0 -1 
8 0 250.00000000000003
1 -7.8086207841245923 -131.94137921587543 -0 1 
1 79.495221690992068 26.663551235475381 -0.94733391068042017 0.32024750065370039 
8 0 124.90339477544899
1 24.551458632439555 51.354587655841513 -0.20792027395928281 -0.97814577629139554 
1 84.172364094626843 12.142335304559037 -1 0 
8 0 150
1 -38.829999738894401 -83.336448764524619 -0 1 
1 -70.780663781138315 -46.663551235475381 0.94733391068042017 0.32024750065370039 
8 0 124.90339477544899
1 1.4184894277162421 -70.819140388220688 -0.20792027395928286 0.97814577629139554 
1 30.587680824509963 -58.15351592198428 0 1 
8 0 150
1 65.827635905373157 -12.14233530455904 -1 -0 
1 -10.311209922847903 75.499956638553087 0.13524210100710221 -0.99081258273963446 
8 0 152.40078739954069
1 -11.543257091632409 99.416050510347688 0.1352717953749262 -0.99080852911954898 
1 10.301732247391296 -75.34617302236687 -0.13539057669285462 0.9907923050482258 
8 0 152.24798264211154
1 10.287149791622383 -75.425117746039092 -0.13522461225096596 0.99081496973026006 
Curves 44
1 -125 30 -75 0.99780871556010431 -0.066164697175267184 0 
1 25.536947227240123 20.017894841308838 -75 -0.99073731355548 -0.13174490198859082 0.03290678241468295 
1 -125 0 -70 0 0.98639392383214375 -0.16439898730535729 
1 25.691127471377921 20.007955460691015 -75 -0.99792852302559765 0.064332440742980029 0 
1 -125 0 -70 0.99076451552246159 0.13154837070531383 -0.032874016279115244 
1 -125 30 -75 0 1 0 
1 -35 65 -75 -0.94868329805051388 -0.31622776601683794 0 
1 7.6293987983717697 65 -75 -1 0 0 
1 125 25 -75 -0.94654147639779529 0.3225821344381643 0 
1 125 19.999999999999996 -75 0 1 0 
8 0 99
1 125 19.999999999999996 -75 -1 3.5885996755560618e-17 0 
1 26 20 -75 -0.99991711344348744 0.012875023993914644 0 
1 25.691127471377921 20.007955460691015 -75 0.99925410343128707 -0.038616535004249657 0 
1 25.84551251807007 20.001989194914124 -75 -0.99078825151110061 -0.13137769609685199 0.032841157651024327 
1 -125 0 -70 0.99080852911954898 0.13123291776417867 -0.032808229441044667 
1 125 19.999999999999996 -75 0 -0.97014250014533188 0.242535625036333 
1 -125 0 -70 1 0 0 
1 125.00000000000001 50 -35 -3.0126951742385017e-16 -0.52999894000317993 -0.84799830400508791 
1 125.00000000000001 50 35 0 0 -1 
1 125.00000000000001 50 35 -3.0126951742385017e-16 -0.52999894000317993 0.84799830400508791 
1 125 19.999999999999996 75 0 1 0 
1 125.00000000000003 0 70 -1.3786554122608152e-15 0.97014250014533188 0.242535625036333 
8 0 140
1 125.00000000000003 0 70 -2.0301221021717148e-16 0 -1 
1 25.691127471377929 20.007955460691015 75 -0.99813098710882875 0.061110822062502859 0 
1 25.691127471377929 20.007955460691015 75 0.99925410343128629 -0.038616535004272624 0 
1 26 20 75 -0.99991711344348766 0.012875023993892244 0 
8 0 99
1 26 20 75 1 -3.5885996755560618e-17 0 
1 125 25 75 -0.94654147639779529 0.3225821344381643 0 
1 -35 65 75 1 0 0 
1 -35 65 75 -0.94868329805051388 -0.31622776601683794 0 
1 -125 35 75 0 -1 0 
1 -125 30 75 0.99780858289655527 -0.066166697801599644 0 
1 25.575576789993779 20.015030080375674 75 -0.99074445928678723 -0.13169320401971277 -0.032898577591655792 
1 -125 0 70 0.99076451552246159 0.13154837070531381 0.032874016279115237 
1 -125 0 70 0 0 -1 
1 -125 0 70 0 0.98639392383214375 0.16439898730535729 
1 -125 35 -75 0 0 1 
1 -125 0 70 1 0 0 
1 125.00000000000001 50 -35 -0.93969104212609134 0.12009281274513765 -0.32024750065370039 
1 7.6293987983717697 65 75 0 0 -1 
1 7.6293987983717697 65 75 0.93969104212609134 -0.12009281274513765 -0.32024750065370039 
1 -35 65 75 0 0 -1 
1 -125 0 70 0.99080852911954898 0.13123291776417867 0.032808229441044667 
1 25.845512518070077 20.00198919491412 75 -0.99078825151110061 -0.13137769609685196 -0.032841157651024327 
Polygon3D 0
PolygonOnTriangulations 0
Surfaces 63
1 -56.601348133249765 17.255717259092918 -73.63187199163697 -0.010900649365632866 -0.16438921972968715 -0.98633531837812249 2.1684043449710089e-19 -0.98639392383214375 0.16439898730535737 -0.99994058615670145 0.0017920557166808293 0.010752334300084971 
1 -25.520097614295704 24.396530777046692 -75 -0 -0 -1 -1 0 0 0 1 -0 
1 -49.654713745934295 10.011543614717723 -72.501269748494863 -0.010693800311691331 -0.16588284573070899 -0.98608748299893534 -2.1684043449710084e-19 -0.98614387101843048 0.16589233150687005 -0.99994281968265242 0.0017740194663753682 0.010545625635269385 
1 -125.00000000000001 8.406277520728958 -8.0857209254706586 -1 -0 -0 0 0 -1 0 -1 0 
1 49.76839385800708 20.00647682951093 -75.000000000000014 -0 -0 -1 -1 0 0 0 1 -0 
1 -49.577571321651853 10.007560609529294 -72.501268482398586 -0.0073437780732024324 -0.19003000545744875 -0.98175081662785169 0 -0.98177729113784851 0.19003512992609592 -0.99997303409822591 0.0013955758202894386 0.0072099545434262131 
1 49.76839385800708 20.00647682951093 -75.000000000000014 -0 -0 -1 -1 0 0 0 1 -0 
1 -26.731997898832304 26.328357010451629 -75 -0 -0 -1 -1 0 0 0 1 -0 
1 -125.00000000000003 33.729172450490921 -1.2291724504909141 -1 -0 -0 0 0 -1 0 -1 0 
1 -95.981978075687437 44.672673974770866 -16.846484078015724 -0.31622776601683789 0.94868329805051388 0 0.94868329805051388 0.31622776601683789 0 0 0 -1 
1 -25.169599745583827 36.966062536195096 -75 -0 -0 -1 -1 0 0 0 1 -0 
1 -4.5129365061872679 64.999999999999986 -9.172364094626845 0 1 0 0 -0 1 1 0 -0 
1 20.723332251973062 46.484209252263327 -75 -0 -0 -1 -1 0 0 0 1 -0 
1 75.664361936684159 49.078451097335517 -63.376281623697594 0.27763687580991409 0.81466017573878535 -0.50916260983674111 1.3877787807814463e-17 0.52999894000318026 0.84799830400508791 0.96068609086970258 -0.23543559981607839 0.1471472498850491 
1 64.967097223644558 39.70124000872346 -75 -0 -0 -1 -1 0 0 0 1 -0 
1 125.00000000000001 16.669579020729234 -58.600913991713803 1 0 -4.0602442043434088e-16 4.0602442043434088e-16 0 1 0 -1 0 
1 100.68887202468106 21.311127975318957 -75.000000000000014 -0 -0 -1 -1 0 0 0 1 -0 
1 49.922753067807186 20.00049889421042 -75 -0 -0 -1 -1 0 0 0 1 -0 
1 -49.500352247452184 10.005566154193179 -72.501267213174572 -0.0028604892457638753 -0.22215509240825712 -0.97500714485502804 0 -0.97501113382811722 0.22215600129460725 -0.99999590879226852 0.00063547485258512958 0.002789008862815372 
1 49.845535017519317 20.002492522865385 -75.000000000000014 -0 -0 -1 -1 0 0 0 1 -0 
1 -25.583949489652316 11.198604294696597 -72.799651073674141 -0 -0.24253562503633344 -0.97014250014533177 0 -0.97014250014533177 0.24253562503633344 -1 0 0 
1 -25.583949489652316 11.198604294696597 -72.799651073674141 -0 -0.24253562503633344 -0.97014250014533177 0 -0.97014250014533177 0.24253562503633344 -1 0 0 
1 103.65160949254702 14.027652812726647 -73.506913203181668 -0 -0.242535625036333 -0.97014250014533188 0 -0.97014250014533188 0.242535625036333 -1 0 0 
1 125 10.269507818502632 -60.096784249485303 1 0 -4.3725706816006153e-16 4.3725706816006153e-16 0 1 0 -1 0 
1 21.792060468614419 0 -36.542060468614409 -0 -1 -0 0 0 -1 1 -0 0 
1 0.73602517924221345 5.0502310433635973 -71.262557760840892 -0 -0.24253562503633291 -0.97014250014533188 0 -0.97014250014533188 0.24253562503633291 -1 0 0 
1 125 10.269507818502632 -60.096784249485303 1 0 -4.3725706816006153e-16 4.3725706816006153e-16 0 1 0 -1 0 
1 125.00000000000001 29.026668777225506 -50.139773033815715 1 0 -3.8537911092073219e-16 3.8537911092073219e-16 0 1 0 -1 0 
1 77.839020728935111 56.02718808478047 28.336448764524619 0.12676925357700031 0.99193223374761352 -1.4167798207339365e-16 0.99193223374761352 -0.12676925357700031 0 -1.7960412035739743e-17 -1.4053495723091571e-16 -1 
1 125.00000000000001 32.075572446594279 21.183936145634611 1 2.8421709430404003e-16 0 -2.8421709430404003e-16 1 0 0 -0 1 
1 124.99999999999999 27.026474175603798 57.195864878032282 1 9.4739031434679964e-16 9.4739031434679905e-16 -9.4739031434679964e-16 1 0 -9.4739031434679905e-16 -8.9754840771812724e-31 1 
1 75.664361936684159 49.078451097335517 63.376281623697594 0.2776368758099142 0.81466017573878557 0.50916260983674111 0 -0.52999894000318004 0.84799830400508791 0.96068609086970258 -0.23543559981607845 -0.14714724988504907 
1 100.43946270926484 23.689462709264838 75 2.7593892650877704e-16 0 1 1 0 -2.7593892650877704e-16 -0 1 0 
1 125.00000000000001 12.469892359968906 72.744567540110666 1 0 5.6843418860807403e-15 -5.6843418860807403e-15 0 1 0 -1 0 
1 103.65160949254701 14.027652812726645 73.506913203181654 0 -0.24253562503633297 0.97014250014533188 0 0.97014250014533188 0.24253562503633297 -1 0 0 
1 25.320340853772542 22.477359879961593 75 0 -2.8710362930528697e-15 1 0 1 2.8710362930528697e-15 -1 0 0 
1 -49.654649882289114 10.009553612168249 72.500951425053259 -0.010321133822580581 -0.16857641765230366 0.98563454972323927 -2.1684043449710084e-19 0.98568705167401172 0.16858539723888924 -0.99994673567976433 0.0017399924454354824 -0.010173407967512376 
1 25.320340853772542 22.477359879961593 75 0 -2.8710362930528697e-15 1 0 1 2.8710362930528697e-15 -1 0 0 
1 25.390053509297307 22.464884730972063 75 0 -2.8620128954696416e-15 1 0 1 2.8620128954696416e-15 -1 0 0 
1 -49.577571321651853 10.007560609529294 72.501268482398586 -0.0073437780744910926 -0.19003000544818263 0.98175081662963559 0 0.98177729113964185 0.19003512991683141 -0.99997303409821647 0.0013955758204662928 -0.0072099545447045594 
1 -49.500352247452199 10.005566154193179 72.501267213174572 -0.0028604892409531193 -0.22215509244260512 0.97500714484721596 1.0842021724855044e-19 0.97501113382029159 0.2221560013289523 -0.99999590879228228 0.00063547485161463517 -0.0027890088581024467 
1 25.4683959288196 22.463085124511412 75.000000000000028 0 -2.8495090507563805e-15 1 0 1 2.8495090507563805e-15 -1 0 0 
1 65.173432995762653 40.921824473992551 75 2.7593892650877744e-16 8.0967794248167767e-16 1 0 1 -8.0967794248167767e-16 -1 2.2342166226622979e-31 2.7593892650877744e-16 
1 -22.85766469544096 65 9.172364094626845 0 1 0 0 -0 1 1 0 -0 
1 20.263861693112514 48.622910418817064 75.000000000000014 0 3.5527136788004878e-16 1 0 1 -3.5527136788004878e-16 -1 0 0 
1 -48.742733169326584 39.388327522889526 74.999999999999986 0 2.3684757858669957e-16 1 0 1 -2.3684757858669957e-16 -1 0 0 
1 -64.018021924312563 55.327326025229134 16.846484078015724 -0.31622776601683794 0.94868329805051388 0 0.94868329805051388 0.31622776601683794 0 0 0 -1 
1 -51.227832410863577 28.812413396423182 75 0 0 1 1 0 -0 -0 1 0 
1 -125.00000000000003 31.270827549509089 1.2291724504909141 -1 -0 -0 0 0 -1 0 -1 0 
1 -48.623466314758033 26.18897289955639 75 0 -2.8727355491735142e-15 1 0 1 2.8727355491735142e-15 -1 0 0 
1 -56.582216394514482 17.25449270286099 73.631902300238806 -0.010900980379289788 -0.16438921913644788 0.98633531481868741 2.1684043449710093e-19 0.98639392383214375 0.16439898730535726 -0.99994058254816842 0.0017921101349908108 -0.010752660809944865 
1 -125.00000000000003 33.729172450490921 -1.2291724504909141 -1 -0 -0 0 0 -1 0 -1 0 
1 -26.313168394762751 0 14.850681252739005 -0 -1 -0 0 0 -1 1 -0 0 
1 -125.00000000000003 21.849633225071749 5.5857209254706577 -1 -0 -0 0 0 -1 0 -1 0 
1 21.792060468614419 0 -36.542060468614409 -0 -1 -0 0 0 -1 1 -0 0 
1 0.73602517924222433 5.0502310433635982 71.262557760840906 0 -0.24253562503633311 0.97014250014533188 0 0.97014250014533188 0.24253562503633311 -1 0 0 
1 6.9413792158754157 0 62.191379215875408 -0 -1 -0 0 0 -1 1 -0 0 
1 77.839020728935111 56.02718808478047 28.336448764524619 0.12676925357700031 0.99193223374761352 -1.4167798207339365e-16 0.99193223374761352 -0.12676925357700031 0 -1.7960412035739743e-17 -1.4053495723091571e-16 -1 
1 46.146127175792536 60.077549916705237 -8.3364487645246168 0.12676925357700042 0.99193223374761352 0 0.99193223374761352 -0.12676925357700042 0 0 0 -1 
1 -4.5129365061872679 64.999999999999986 -9.172364094626845 0 1 0 0 -0 1 1 0 -0 
1 -95.981978075687437 44.672673974770866 -16.846484078015724 -0.31622776601683789 0.94868329805051388 0 0.94868329805051388 0.31622776601683789 0 0 0 -1 
1 103.65160949254701 14.027652812726645 73.506913203181654 0 -0.24253562503633297 0.97014250014533188 0 0.97014250014533188 0.24253562503633297 -1 0 0 
1 -25.583949489652316 11.198604294696597 72.799651073674156 -2.3193936926066777e-16 -0.24253562503633097 0.97014250014533243 0 0.97014250014533243 0.24253562503633097 -1 5.625355989416842e-17 -2.2501423957667565e-16 
Triangulations 0

TShapes 112
Ve
1e-07
-125 30 -75
0 0

0101101
*
Ve
1e-07
25.5369472272401 20.0178948413088 -75
0 0

0101101
*
Ed
 1e-07 1 1 0
1  1 0 0 150.867540922148
2  1 1 0 0 150.867540922148
2  2 2 0 0 150.867540922148
4 C0 1 0 2 0
0

0101000
+112 0 -111 0 *
Ve
1e-07
-125 0 -70
0 0

0101101
*
Ed
 1e-07 1 1 0
1  2 0 0 151.944360192718
2  3 1 0 0 151.944360192718
2  4 3 0 0 151.944360192718
4 C0 1 0 3 0
0

0101000
+111 0 -109 0 *
Ed
 1e-07 1 1 0
1  3 0 0 30.4138126514911
2  5 1 0 0 30.4138126514911
2  6 4 0 0 30.4138126514911
4 C0 1 0 4 0
0

0101000
+109 0 -112 0 *
Wi

0101100
+110 0 +108 0 +107 0 *
Fa
0  1e-07 1 0

0101000
+106 0 *
Ve
1e-07
25.6911274713779 20.007955460691 -75
0 0

0101101
*
Ed
 1e-07 1 1 0
1  4 0 0 0.154500287926777
2  7 5 0 0 0.154500287926777
2  8 3 0 0 0.154500287926777
4 C0 3 0 5 0
0

0101000
+104 0 -111 0 *
Ed
 1e-07 1 1 0
1  5 0 0 152.095805926107
2  9 6 0 0 152.095805926107
2  10 3 0 0 152.095805926107
4 C0 3 0 6 0
0

0101000
+109 0 -104 0 *
Wi

0101100
-108 0 -103 0 -102 0 *
Fa
0  1e-07 3 0

0101000
+101 0 *
Ve
1e-07
-125 35 -75
0 0

0101101
*
Ed
 1e-07 1 1 0
1  6 0 0 5
2  11 8 0 0 5
2  12 9 0 0 5
4 C0 8 0 9 0
0

0101000
+112 0 -99 0 *
Ve
1e-07
-35 65 -75
0 0

0101101
*
Ed
 1e-07 1 1 0
1  7 0 0 94.8683298050514
2  13 10 0 0 94.8683298050514
2  14 11 0 0 94.8683298050514
4 C0 10 0 11 0
0

0101000
+97 0 -99 0 *
Ve
1e-07
7.62939879837177 65 -75
0 0

0101101
*
Ed
 1e-07 1 1 0
1  8 0 0 42.6293987983718
2  15 12 0 0 42.6293987983718
2  16 13 0 0 42.6293987983718
4 C0 12 0 13 0
0

0101000
+95 0 -97 0 *
Ve
1e-07
125 25 -75
0 0

0101101
*
Ed
 1e-07 1 1 0
1  9 0 0 123.999427524613
2  17 14 0 0 123.999427524613
2  18 15 0 0 123.999427524613
4 C0 14 0 15 0
0

0101000
+93 0 -95 0 *
Ve
1e-07
125 20 -75
0 0

0101101
*
Ed
 1e-07 1 1 0
1  10 0 0 5
2  19 16 0 0 5
2  20 17 0 0 5
4 C0 16 0 17 0
0

0101000
+91 0 -93 0 *
Ve
1e-07
26 20 -75
0 0

0101101
*
Ed
 1e-07 1 1 0
1  11 0 0 99
0

0101000
+91 0 -89 0 *
Ve
1e-07
25.8455125180701 20.0019891949141 -75
0 0

0101101
*
Ed
 1e-07 1 1 0
1  12 0 0 0.154500287926777
2  21 18 0 0 0.154500287926777
2  22 19 0 0 0.154500287926777
4 C0 19 0 18 0
0

0101000
+89 0 -87 0 *
Ed
 1e-07 1 1 0
1  13 0 0 0.154500287926778
2  23 6 0 0 0.154500287926778
2  24 20 0 0 0.154500287926778
4 C0 6 0 20 0
0

0101000
+104 0 -87 0 *
Wi

0101100
+103 0 -110 0 +98 0 -96 0 -94 0 -92 0 -90 0 +88 0 +86 0 -85 0 
*
Fa
0  0 7 0

0111000
+84 0 *
Ed
 1e-07 1 1 0
1  14 0 0 152.247982642112
2  25 6 0 0 152.247982642112
2  26 19 0 0 152.247982642112
4 C0 6 0 19 0
0

0101000
+87 0 -109 0 *
Wi

0101100
+85 0 +82 0 +102 0 *
Fa
0  1e-07 6 0

0101000
+81 0 *
Ed
 1e-07 1 1 0
1  15 0 0 152.400787399541
2  27 21 0 0 152.400787399541
2  28 19 0 0 152.400787399541
4 C0 19 0 21 0
0

0101000
+109 0 -89 0 *
Wi

0101100
-82 0 -86 0 -79 0 *
Fa
0  1e-07 19 0

0101000
+78 0 *
Ve
1e-07
125 0 -70
0 0

0101101
*
Ed
 1e-07 1 1 0
1  16 0 0 20.6155281280883
2  29 23 0 0 20.6155281280883
2  30 24 0 0 20.6155281280883
4 C0 23 0 24 0
0

0101000
+91 0 -76 0 *
Ed
 1e-07 1 1 0
1  17 0 0 250
2  31 25 0 0 250
2  32 26 0 0 250
4 C0 26 0 25 0
0

0101000
+109 0 -76 0 *
Wi

0101100
-88 0 +75 0 -74 0 +79 0 *
Fa
0  0 22 0

0111000
+73 0 *
Ve
1e-07
125 50 -35
0 0

0101101
*
Ed
 1e-07 1 1 0
1  18 0 0 47.169905660283
2  33 14 0 0 47.169905660283
2  34 28 0 0 47.169905660283
4 C0 14 0 28 0
0

0101000
+71 0 -93 0 *
Ve
1e-07
125 50 35
0 0

0101101
*
Ed
 1e-07 1 1 0
1  19 0 0 70
2  35 29 0 0 70
2  36 30 0 0 70
4 C0 30 0 29 0
0

0101000
+69 0 -71 0 *
Ve
1e-07
125 25 75
0 0

0101101
*
Ed
 1e-07 1 1 0
1  20 0 0 47.169905660283
2  37 31 0 0 47.169905660283
2  38 32 0 0 47.169905660283
4 C0 31 0 32 0
0

0101000
+69 0 -67 0 *
Ve
1e-07
125 20 75
0 0

0101101
*
Ed
 1e-07 1 1 0
1  21 0 0 5
2  39 33 0 0 5
2  40 34 0 0 5
4 C0 33 0 34 0
0

0101000
+65 0 -67 0 *
Ve
1e-07
125 0 70
0 0

0101101
*
Ed
 1e-07 1 1 0
1  22 0 0 20.6155281280883
2  41 35 0 0 20.6155281280883
2  42 34 0 0 20.6155281280883
4 C0 35 0 34 0
0

0101000
+63 0 -65 0 *
Ed
 1e-07 1 1 0
1  23 0 0 140
0

0101000
+63 0 -76 0 *
Wi

0101100
-75 0 +90 0 -70 0 -68 0 +66 0 -64 0 -62 0 +61 0 *
Fa
0  0 27 0

0111000
+60 0 *
Ve
1e-07
25.6911274713779 20.007955460691 75
0 0

0101101
*
Ve
1e-07
25.5755767899938 20.0150300803757 75
0 0

0101101
*
Ed
 1e-07 1 1 0
1  24 0 0 0.115767051495768
2  43 37 0 0 0.115767051495768
2  44 38 0 0 0.115767051495768
4 C0 37 0 38 0
0

0101000
+58 0 -57 0 *
Ve
1e-07
25.8455125180701 20.0019891949141 75
0 0

0101101
*
Ed
 1e-07 1 1 0
1  25 0 0 0.154500287926778
2  45 39 0 0 0.154500287926778
2  46 40 0 0 0.154500287926778
4 C0 39 0 40 0
0

0101000
+58 0 -55 0 *
Ve
1e-07
26 20 75
0 0

0101101
*
Ed
 1e-07 1 1 0
1  26 0 0 0.15450028792677
2  47 41 0 0 0.15450028792677
2  48 42 0 0 0.15450028792677
4 C0 41 0 42 0
0

0101000
+53 0 -55 0 *
Ed
 1e-07 1 1 0
1  27 0 0 99
0

0101000
+53 0 -65 0 *
Ve
1e-07
7.62939879837177 65 75
0 0

0101101
*
Ed
 1e-07 1 1 0
1  28 0 0 123.999427524613
2  49 43 0 0 123.999427524613
2  50 32 0 0 123.999427524613
4 C0 43 0 32 0
0

0101000
+67 0 -50 0 *
Ve
1e-07
-35 65 75
0 0

0101101
*
Ed
 1e-07 1 1 0
1  29 0 0 42.6293987983718
2  51 44 0 0 42.6293987983718
2  52 45 0 0 42.6293987983718
4 C0 44 0 45 0
0

0101000
+48 0 -50 0 *
Ve
1e-07
-125 35 75
0 0

0101101
*
Ed
 1e-07 1 1 0
1  30 0 0 94.8683298050514
2  53 46 0 0 94.8683298050514
2  54 47 0 0 94.8683298050514
4 C0 47 0 46 0
0

0101000
+48 0 -46 0 *
Ve
1e-07
-125 30 75
0 0

0101101
*
Ed
 1e-07 1 1 0
1  31 0 0 5
2  55 48 0 0 5
2  56 49 0 0 5
4 C0 48 0 49 0
0

0101000
+46 0 -44 0 *
Ed
 1e-07 1 1 0
1  32 0 0 150.906275382885
2  57 50 0 0 150.906275382885
2  58 51 0 0 150.906275382885
4 C0 50 0 51 0
0

0101000
+44 0 -57 0 *
Wi

0101100
-56 0 +54 0 -52 0 +51 0 +64 0 +49 0 -47 0 +45 0 +43 0 +42 0 
*
Fa
0  0 36 0

0111000
+41 0 *
Ve
1e-07
-125 0 70
0 0

0101101
*
Ed
 1e-07 1 1 0
1  33 0 0 151.982254736392
2  59 37 0 0 151.982254736392
2  60 51 0 0 151.982254736392
4 C0 37 0 51 0
0

0101000
+57 0 -39 0 *
Ed
 1e-07 1 1 0
1  34 0 0 152.095805926107
2  61 37 0 0 152.095805926107
2  62 40 0 0 152.095805926107
4 C0 37 0 40 0
0

0101000
+39 0 -58 0 *
Wi

0101100
+56 0 +38 0 +37 0 *
Fa
0  1e-07 37 0

0101000
+36 0 *
Ed
 1e-07 1 1 0
1  35 0 0 140
2  63 53 0 0 140
2  64 4 0 0 140
4 C0 53 0 4 0
0

0101000
+39 0 -109 0 *
Ed
 1e-07 1 1 0
1  36 0 0 30.4138126514911
2  65 54 0 0 30.4138126514911
2  66 51 0 0 30.4138126514911
4 C0 54 0 51 0
0

0101000
+39 0 -44 0 *
Ed
 1e-07 1 1 0
1  37 0 0 150
2  67 10 0 0 150
2  68 9 0 0 150
4 C0 9 0 10 0
0

0101000
+99 0 -46 0 *
Wi

0101100
-98 0 -107 0 -34 0 +33 0 -43 0 -32 0 *
Fa
0  0 52 0

0101000
+31 0 *
Ed
 1e-07 1 1 0
1  38 0 0 250
2  69 56 0 0 250
2  70 57 0 0 250
4 C0 56 0 57 0
0

0101000
+39 0 -63 0 *
Wi

0101100
-61 0 -29 0 +34 0 +74 0 *
Fa
0  0 55 0

0111000
+28 0 *
Ed
 1e-07 1 1 0
1  39 0 0 124.903394775449
2  71 59 0 0 124.903394775449
2  72 14 0 0 124.903394775449
4 C0 59 0 14 0
0

0101000
+71 0 -95 0 *
Ed
 1e-07 1 1 0
1  40 0 0 150
2  73 12 0 0 150
2  74 59 0 0 150
4 C0 59 0 12 0
0

0101000
+50 0 -95 0 *
Ed
 1e-07 1 1 0
1  41 0 0 124.903394775449
2  75 29 0 0 124.903394775449
2  76 32 0 0 124.903394775449
4 C0 29 0 32 0
0

0101000
+50 0 -69 0 *
Wi

0101100
+68 0 +26 0 -25 0 +24 0 *
Fa
0  0 58 0

0101000
+23 0 *
Ed
 1e-07 1 1 0
1  42 0 0 150
2  77 47 0 0 150
2  78 44 0 0 150
4 C0 44 0 47 0
0

0101000
+48 0 -97 0 *
Wi

0101100
+94 0 -21 0 +47 0 +25 0 *
Fa
0  0 60 0

0101000
+20 0 *
Wi

0101100
+96 0 +32 0 -45 0 +21 0 *
Fa
0  0 61 0

0101000
+18 0 *
Ed
 1e-07 1 1 0
1  43 0 0 152.400787399541
2  79 41 0 0 152.400787399541
2  80 63 0 0 152.400787399541
4 C0 41 0 63 0
0

0101000
+39 0 -53 0 *
Wi

0101100
-51 0 -16 0 +29 0 +62 0 *
Fa
0  0 62 0

0111000
+15 0 *
Wi

0101100
+70 0 +92 0 -26 0 *
Fa
0  1e-07 14 0

0101000
+13 0 *
Wi

0101100
-49 0 -66 0 -24 0 *
Fa
0  1e-07 32 0

0101000
+11 0 *
Wi

0101100
-38 0 -42 0 -33 0 *
Fa
0  1e-07 51 0

0101000
+9 0 *
Ed
 1e-07 1 1 0
1  44 0 0 152.247982642112
2  81 41 0 0 152.247982642112
2  82 40 0 0 152.247982642112
4 C0 41 0 40 0
0

0101000
+55 0 -39 0 *
Wi

0101100
+52 0 +7 0 +16 0 *
Fa
0  1e-07 41 0

0101000
+6 0 *
Wi

0101100
-7 0 -54 0 -37 0 *
Fa
0  1e-07 40 0

0101000
+4 0 *
Sh

0101100
+105 0 +100 0 +83 0 +80 0 +77 0 +72 0 +59 0 +40 0 +35 0 +30 0 
+27 0 +22 0 +19 0 +17 0 +14 0 +12 0 +10 0 +8 0 +5 0 +3 0 
*
So

1100000
+2 0 *

+1 0 