DBRep_DrawableShape

CASCADE Topology V3, (c) Open Cascade
Locations 0
Curve2ds 0
Curves 14
1 195 95 240 0 0 -1 
1 195 95 0 0 0 1 
1 -165 -150 240 0 1 0 
1 -165 95 240 0 -1 0 
1 195 -150 240 0 0.71435858137511865 -0.69977983481644279 
1 195 95 0 0 -0.71435858137511865 0.69977983481644279 
1 -165 -150 240 0 0 -1 
1 -165 -150 0 0 0 1 
1 -165 95 240 0 -0.71435858137511865 -0.69977983481644279 
1 -165 -150 0 0 0.71435858137511865 0.69977983481644279 
1 -165 95 0 0 -1 0 
1 -165 -150 0 0 1 0 
1 -165 95 240 0 0 -1 
1 -165 95 0 0 0 1 
Polygon3D 0
PolygonOnTriangulations 0
Surfaces 7
1 195 95 120 -1 -0 -0 0 0 -1 0 -1 0 
1 -165 -27.5 240 -0 -0 -1 -1 0 0 0 1 -0 
1 194.99999999999997 -27.5 119.99999999999999 -1 -0 -0 0 0 -1 0 -1 0 
1 -165 -150 120 -1 -0 -0 0 0 -1 0 -1 0 
1 -165 -27.500000000000007 119.99999999999999 1 0 0 -0 0 1 0 -1 0 
1 -165 -27.5 0 -0 -0 -1 -1 0 0 0 1 -0 
1 -165 95 120 -1 -0 -0 0 0 -1 0 -1 0 
Triangulations 0

TShapes 43
Ve
1e-07
195 95 240
0 0

0101101
*
Ve
1e-07
195 95 0
0 0

0101101
*
Ed
 1e-07 1 1 0
1  1 0 0 240
0

0101000
+43 0 -42 0 *
Ed
 1e-07 1 1 0
1  2 0 0 240
0

0101000
+42 0 -43 0 *
Wi

0101100
+41 0 +40 0 *
Fa
0  1e-07 1 0

0101000
-39 0 *
Ve
1e-07
-165 -150 240
0 0

0101101
*
Ve
1e-07
-165 95 240
0 0

0101101
*
Ed
 1e-07 1 1 0
1  3 0 0 245
0

0101000
+37 0 -36 0 *
Ed
 1e-07 1 1 0
1  4 0 0 245
0

0101000
+36 0 -37 0 *
Wi

0101100
+35 0 +34 0 *
Fa
0  1e-07 2 0

0101000
-33 0 *
Ve
1e-07
195 -150 240
0 0

0101101
*
Ve
1e-07
195 95 0
0 0

0101101
*
Ed
 1e-07 1 1 0
1  5 0 0 342.96501279285
0

0101000
+31 0 -30 0 *
Ed
 1e-07 1 1 0
1  6 0 0 342.96501279285
0

0101000
+30 0 -31 0 *
Wi

0101100
+29 0 +28 0 *
Fa
0  1e-07 3 0

0101000
-27 0 *
Ve
1e-07
-165 -150 240
0 0

0101101
*
Ve
1e-07
-165 -150 0
0 0

0101101
*
Ed
 1e-07 1 1 0
1  7 0 0 240
0

0101000
+25 0 -24 0 *
Ed
 1e-07 1 1 0
1  8 0 0 240
0

0101000
+24 0 -25 0 *
Wi

0101100
+23 0 +22 0 *
Fa
0  1e-07 4 0

0101000
-21 0 *
Ve
1e-07
-165 95 240
0 0

0101101
*
Ve
1e-07
-165 -150 0
0 0

0101101
*
Ed
 1e-07 1 1 0
1  9 0 0 342.96501279285
0

0101000
+19 0 -18 0 *
Ed
 1e-07 1 1 0
1  10 0 0 342.96501279285
0

0101000
+18 0 -19 0 *
Wi

0101100
+17 0 +16 0 *
Fa
0  1e-07 5 0

0101000
+15 0 *
Ve
1e-07
-165 95 0
0 0

0101101
*
Ve
1e-07
-165 -150 0
0 0

0101101
*
Ed
 1e-07 1 1 0
1  11 0 0 245
0

0101000
+13 0 -12 0 *
Ed
 1e-07 1 1 0
1  12 0 0 245
0

0101000
+12 0 -13 0 *
Wi

0101100
+11 0 +10 0 *
Fa
0  1e-07 6 0

0101000
-9 0 *
Ve
1e-07
-165 95 240
0 0

0101101
*
Ve
1e-07
-165 95 0
0 0

0101101
*
Ed
 1e-07 1 1 0
1  13 0 0 240
0

0101000
+7 0 -6 0 *
Ed
 1e-07 1 1 0
1  14 0 0 240
0

0101000
+6 0 -7 0 *
Wi

0101100
+5 0 +4 0 *
Fa
0  1e-07 7 0

0101000
-3 0 *
Co

1100000
+38 0 +32 0 +26 0 +20 0 +14 0 +8 0 +2 0 *

+1 0 